<svg viewBox="0 0 65 27" fill="none" xmlns="http://www.w3.org/2000/svg">
        <path d="M32.7911 26.3544L22.8653 0.327881H10.6533L0.730347 26.3544H7.00674L10.0725 18.3164L13.4805 26.3544L16.7763 18.6L20.0707 26.3544L23.4645 18.3711L26.509 26.3544H32.7911ZM16.9808 18.1349H10.1407L16.7607 0.777161L23.3808 18.1349H16.9808Z" fill="white"/>
        <path d="M57.7845 16.034C59.6335 15.5371 61.241 14.3749 62.3068 12.7641C63.3727 11.1534 63.824 9.20439 63.5765 7.28094C63.3291 5.35749 62.3997 3.59111 60.9621 2.31163C59.5244 1.03214 57.6766 0.327003 55.7638 0.327882C55.6886 0.327882 55.6147 0.337962 55.5395 0.339402V0.327882H44.7333V6.26356H55.3137C55.9705 6.26356 56.6004 6.52815 57.0648 6.99912C57.5293 7.47009 57.7902 8.10887 57.7902 8.77492C57.7902 9.44097 57.5293 10.0797 57.0648 10.5507C56.6004 11.0217 55.9705 11.2863 55.3137 11.2863H44.7333V26.3544H50.5865V16.3119H51.0125L57.35 26.3544H64.308L57.7845 16.034Z" fill="white"/>
        <path d="M42.4811 0.327881V6.26356H28.0738L25.8259 0.327881H42.4811Z" fill="white"/>
        <path d="M40.2305 11.2861H30.3246L32.5767 17.2218H40.2305V11.2861Z" fill="white"/>
    </svg>